<svg width="17" height="16" viewBox="0 0 17 16" fill="none" xmlns="http://www.w3.org/2000/svg">
<path d="M16.8659 6.57375C14.2542 12.1049 13.4045 12.1049 12.8975 12.1049H7.90271C6.15327 12.1049 4.81279 11.076 4.4875 9.4826C4.47751 9.4339 3.48854 4.57956 3.23568 3.22347C3.11143 2.55853 2.79551 2.11524 1.65919 2.11524C1.1416 2.11524 0.722656 1.6963 0.722656 1.17872C0.722656 0.661128 1.1416 0.242188 1.65919 0.242188C3.54473 0.242188 4.75847 1.17872 5.07689 2.87945C5.32726 4.22119 6.31311 9.05929 6.3231 9.10862C6.52227 10.0864 7.39823 10.2324 7.90271 10.2324H12.6509C13.161 9.68427 14.3236 7.57208 15.172 5.77395C15.3931 5.30631 15.9519 5.10714 16.4189 5.32691C16.8871 5.54731 17.0869 6.10548 16.8659 6.57375ZM7.27836 12.7292C6.41613 12.7292 5.71748 13.4279 5.71748 14.2901C5.71748 15.1523 6.41613 15.851 7.27836 15.851C8.14059 15.851 8.83924 15.1523 8.83924 14.2901C8.83924 13.4279 8.14059 12.7292 7.27836 12.7292ZM12.8975 12.7292C12.0353 12.7292 11.3366 13.4279 11.3366 14.2901C11.3366 15.1523 12.0353 15.851 12.8975 15.851C13.7598 15.851 14.4584 15.1523 14.4584 14.2901C14.4584 13.4279 13.7598 12.7292 12.8975 12.7292ZM9.87754 7.63702C9.93997 7.68759 10.0168 7.71194 10.0936 7.71194C10.1704 7.71194 10.2459 7.68759 10.3096 7.63702C10.372 7.58769 12.0753 5.92629 13.0043 4.54398C13.0761 4.43659 13.083 4.29923 13.0218 4.1856C12.9625 4.07259 12.8438 4.00141 12.7158 4.00141H11.326C11.326 4.00141 11.1906 1.32232 11.1019 1.19807C10.9733 1.01451 10.442 0.889641 10.0929 0.889641C9.74268 0.889641 9.20199 1.01451 9.07275 1.19807C8.98471 1.32169 8.86796 4.00141 8.86796 4.00141H7.46004C7.33143 4.00141 7.21342 4.07259 7.15286 4.1856C7.0923 4.29923 7.09917 4.43721 7.17034 4.54398C8.10001 5.92692 9.81573 7.58769 9.87754 7.63702Z" fill="white"/>
</svg>
