<svg width="15" height="16" viewBox="0 0 15 16" fill="none" xmlns="http://www.w3.org/2000/svg">
<path d="M11.6517 9.94145C10.9251 9.94145 10.2674 10.242 9.79533 10.725L5.71484 8.34286C5.78173 8.1127 5.81954 7.87052 5.81954 7.61894C5.81954 7.37916 5.78436 7.14781 5.72355 6.92729L9.77316 4.63307C10.2467 5.13001 10.9131 5.44123 11.6521 5.44123C13.0853 5.44123 14.2517 4.27536 14.2517 2.84139C14.2516 1.40805 13.0853 0.242188 11.6521 0.242188C10.2189 0.242188 9.05257 1.40805 9.05257 2.84139C9.05257 3.08121 9.08768 3.31256 9.14892 3.53354L5.09927 5.828C4.62575 5.33095 3.95917 5.01973 3.2203 5.01973C1.78696 5.01973 0.621094 6.18559 0.621094 7.61941C0.621094 9.05267 1.78696 10.2187 3.2203 10.2187C3.94741 10.2187 4.60452 9.9181 5.0771 9.43517L9.15712 11.8173C9.09046 12.0477 9.05229 12.2904 9.05229 12.5415C9.05229 13.9752 10.2186 15.1408 11.6516 15.1408C13.0851 15.1408 14.2514 13.9752 14.2514 12.5415C14.2514 11.1075 13.0851 9.94145 11.6517 9.94145Z" fill="white"/>
</svg>
